<mxfile host="app.diagrams.net" modified="2021-08-06T02:01:06.674Z" agent="5.0 (Windows NT 10.0; Win64; x64) AppleWebKit/537.36 (KHTML, like Gecko) Chrome/92.0.4515.107 Safari/537.36 Edg/92.0.902.62" etag="nLTC8j7-OXaJLi5ejVsz" version="14.9.4" type="github">
  <diagram id="wOEtmpE22JPiZsjKgkxO" name="Page-1">
    <mxGraphModel dx="782" dy="468" grid="1" gridSize="10" guides="1" tooltips="1" connect="1" arrows="1" fold="1" page="1" pageScale="1" pageWidth="827" pageHeight="1169" math="0" shadow="0">
      <root>
        <mxCell id="0" />
        <mxCell id="1" parent="0" />
        <mxCell id="U-x_nso1w-7MmtHxoD05-55" value="" style="line;strokeWidth=2;html=1;" parent="1" vertex="1">
          <mxGeometry x="40" y="420" width="630" height="10" as="geometry" />
        </mxCell>
        <mxCell id="U-x_nso1w-7MmtHxoD05-60" value="版本制作人" style="text;html=1;align=center;verticalAlign=middle;resizable=0;points=[];autosize=1;strokeColor=none;" parent="1" vertex="1">
          <mxGeometry x="62" y="400" width="80" height="20" as="geometry" />
        </mxCell>
        <mxCell id="U-x_nso1w-7MmtHxoD05-61" value="开发主管" style="text;html=1;align=center;verticalAlign=middle;resizable=0;points=[];autosize=1;strokeColor=none;" parent="1" vertex="1">
          <mxGeometry x="307" y="400" width="60" height="20" as="geometry" />
        </mxCell>
        <mxCell id="U-x_nso1w-7MmtHxoD05-62" value="运维主管" style="text;html=1;align=center;verticalAlign=middle;resizable=0;points=[];autosize=1;strokeColor=none;" parent="1" vertex="1">
          <mxGeometry x="430" y="400" width="60" height="20" as="geometry" />
        </mxCell>
        <mxCell id="U-x_nso1w-7MmtHxoD05-63" value="部门领导" style="text;html=1;align=center;verticalAlign=middle;resizable=0;points=[];autosize=1;strokeColor=none;" parent="1" vertex="1">
          <mxGeometry x="570" y="400" width="60" height="20" as="geometry" />
        </mxCell>
        <mxCell id="U-x_nso1w-7MmtHxoD05-68" style="edgeStyle=orthogonalEdgeStyle;rounded=0;orthogonalLoop=1;jettySize=auto;html=1;exitX=0.5;exitY=1;exitDx=0;exitDy=0;entryX=0.5;entryY=0;entryDx=0;entryDy=0;" parent="1" target="U-x_nso1w-7MmtHxoD05-65" edge="1">
          <mxGeometry relative="1" as="geometry">
            <mxPoint x="102" y="450" as="sourcePoint" />
          </mxGeometry>
        </mxCell>
        <mxCell id="U-x_nso1w-7MmtHxoD05-64" value="开始" style="ellipse;whiteSpace=wrap;html=1;" parent="1" vertex="1">
          <mxGeometry x="68" y="440" width="68" height="40" as="geometry" />
        </mxCell>
        <mxCell id="U-x_nso1w-7MmtHxoD05-69" value="" style="edgeStyle=orthogonalEdgeStyle;rounded=0;orthogonalLoop=1;jettySize=auto;html=1;" parent="1" source="U-x_nso1w-7MmtHxoD05-65" target="U-x_nso1w-7MmtHxoD05-67" edge="1">
          <mxGeometry relative="1" as="geometry" />
        </mxCell>
        <mxCell id="U-x_nso1w-7MmtHxoD05-65" value="起草创建发布单" style="rounded=1;whiteSpace=wrap;html=1;" parent="1" vertex="1">
          <mxGeometry x="55" y="510" width="95.5" height="20" as="geometry" />
        </mxCell>
        <mxCell id="U-x_nso1w-7MmtHxoD05-67" value="上传附件&lt;br&gt;输入信息" style="rounded=1;whiteSpace=wrap;html=1;" parent="1" vertex="1">
          <mxGeometry x="55" y="560" width="95" height="40" as="geometry" />
        </mxCell>
        <mxCell id="U-x_nso1w-7MmtHxoD05-72" value="修改" style="rounded=1;whiteSpace=wrap;html=1;" parent="1" vertex="1">
          <mxGeometry x="59.25" y="677.5" width="85.5" height="30" as="geometry" />
        </mxCell>
        <mxCell id="U-x_nso1w-7MmtHxoD05-75" value="" style="edgeStyle=orthogonalEdgeStyle;rounded=0;orthogonalLoop=1;jettySize=auto;html=1;exitX=0.5;exitY=0;exitDx=0;exitDy=0;" parent="1" source="HqEoBKaH_x2RzY1JDvCR-24" target="U-x_nso1w-7MmtHxoD05-72" edge="1">
          <mxGeometry relative="1" as="geometry">
            <mxPoint x="102" y="800" as="sourcePoint" />
          </mxGeometry>
        </mxCell>
        <mxCell id="HqEoBKaH_x2RzY1JDvCR-33" value="" style="edgeStyle=orthogonalEdgeStyle;rounded=0;orthogonalLoop=1;jettySize=auto;html=1;" parent="1" source="U-x_nso1w-7MmtHxoD05-76" target="U-x_nso1w-7MmtHxoD05-82" edge="1">
          <mxGeometry relative="1" as="geometry" />
        </mxCell>
        <mxCell id="U-x_nso1w-7MmtHxoD05-76" value="一级开发主管审核" style="rounded=1;whiteSpace=wrap;html=1;" parent="1" vertex="1">
          <mxGeometry x="304" y="710" width="66" height="30" as="geometry" />
        </mxCell>
        <mxCell id="U-x_nso1w-7MmtHxoD05-80" value="不通过" style="text;html=1;align=center;verticalAlign=middle;resizable=0;points=[];autosize=1;strokeColor=none;" parent="1" vertex="1">
          <mxGeometry x="332.5" y="760" width="50" height="20" as="geometry" />
        </mxCell>
        <mxCell id="HqEoBKaH_x2RzY1JDvCR-25" value="" style="edgeStyle=orthogonalEdgeStyle;rounded=0;orthogonalLoop=1;jettySize=auto;html=1;" parent="1" source="U-x_nso1w-7MmtHxoD05-82" target="HqEoBKaH_x2RzY1JDvCR-24" edge="1">
          <mxGeometry relative="1" as="geometry" />
        </mxCell>
        <mxCell id="U-x_nso1w-7MmtHxoD05-82" value="更改状态" style="rounded=1;whiteSpace=wrap;html=1;" parent="1" vertex="1">
          <mxGeometry x="300.75" y="806" width="72.5" height="30" as="geometry" />
        </mxCell>
        <mxCell id="U-x_nso1w-7MmtHxoD05-86" value="" style="endArrow=classic;html=1;entryX=0;entryY=0.5;entryDx=0;entryDy=0;exitX=1;exitY=0.5;exitDx=0;exitDy=0;" parent="1" source="U-x_nso1w-7MmtHxoD05-76" target="U-x_nso1w-7MmtHxoD05-88" edge="1">
          <mxGeometry width="50" height="50" relative="1" as="geometry">
            <mxPoint x="376" y="723" as="sourcePoint" />
            <mxPoint x="415" y="724.5" as="targetPoint" />
          </mxGeometry>
        </mxCell>
        <mxCell id="U-x_nso1w-7MmtHxoD05-88" value="更改状态" style="rounded=1;whiteSpace=wrap;html=1;" parent="1" vertex="1">
          <mxGeometry x="440" y="707.5" width="70" height="35" as="geometry" />
        </mxCell>
        <mxCell id="U-x_nso1w-7MmtHxoD05-90" value="二级运维主管审核" style="rounded=1;whiteSpace=wrap;html=1;" parent="1" vertex="1">
          <mxGeometry x="445" y="806" width="60" height="31" as="geometry" />
        </mxCell>
        <mxCell id="U-x_nso1w-7MmtHxoD05-96" value="" style="edgeStyle=orthogonalEdgeStyle;rounded=0;orthogonalLoop=1;jettySize=auto;html=1;exitX=0;exitY=0.5;exitDx=0;exitDy=0;" parent="1" source="U-x_nso1w-7MmtHxoD05-90" edge="1">
          <mxGeometry relative="1" as="geometry">
            <mxPoint x="408" y="821" as="sourcePoint" />
            <mxPoint x="375.5" y="821" as="targetPoint" />
          </mxGeometry>
        </mxCell>
        <mxCell id="U-x_nso1w-7MmtHxoD05-91" value="不通过" style="text;html=1;align=center;verticalAlign=middle;resizable=0;points=[];autosize=1;strokeColor=none;" parent="1" vertex="1">
          <mxGeometry x="382.5" y="800" width="50" height="20" as="geometry" />
        </mxCell>
        <mxCell id="U-x_nso1w-7MmtHxoD05-105" value="审批通过" style="rounded=1;whiteSpace=wrap;html=1;" parent="1" vertex="1">
          <mxGeometry x="570" y="801" width="80" height="40" as="geometry" />
        </mxCell>
        <mxCell id="U-x_nso1w-7MmtHxoD05-108" value="关闭/结束" style="rounded=1;whiteSpace=wrap;html=1;" parent="1" vertex="1">
          <mxGeometry x="61" y="870" width="75" height="30" as="geometry" />
        </mxCell>
        <mxCell id="HqEoBKaH_x2RzY1JDvCR-3" value="审批单" style="text;html=1;align=center;verticalAlign=middle;resizable=0;points=[];autosize=1;strokeColor=none;" parent="1" vertex="1">
          <mxGeometry x="190" y="400" width="50" height="20" as="geometry" />
        </mxCell>
        <mxCell id="HqEoBKaH_x2RzY1JDvCR-4" value="" style="endArrow=none;html=1;exitX=0.5;exitY=0;exitDx=0;exitDy=0;entryX=0.5;entryY=1;entryDx=0;entryDy=0;" parent="1" source="U-x_nso1w-7MmtHxoD05-72" target="U-x_nso1w-7MmtHxoD05-67" edge="1">
          <mxGeometry width="50" height="50" relative="1" as="geometry">
            <mxPoint x="210" y="700" as="sourcePoint" />
            <mxPoint x="260" y="650" as="targetPoint" />
          </mxGeometry>
        </mxCell>
        <mxCell id="HqEoBKaH_x2RzY1JDvCR-5" value="" style="endArrow=classic;html=1;" parent="1" edge="1">
          <mxGeometry width="50" height="50" relative="1" as="geometry">
            <mxPoint x="100" y="630" as="sourcePoint" />
            <mxPoint x="180" y="630" as="targetPoint" />
          </mxGeometry>
        </mxCell>
        <mxCell id="HqEoBKaH_x2RzY1JDvCR-6" value="校验审批单" style="rounded=1;whiteSpace=wrap;html=1;" parent="1" vertex="1">
          <mxGeometry x="185" y="610" width="65" height="38" as="geometry" />
        </mxCell>
        <mxCell id="HqEoBKaH_x2RzY1JDvCR-9" value="" style="edgeStyle=orthogonalEdgeStyle;rounded=0;orthogonalLoop=1;jettySize=auto;html=1;" parent="1" source="HqEoBKaH_x2RzY1JDvCR-7" target="U-x_nso1w-7MmtHxoD05-72" edge="1">
          <mxGeometry relative="1" as="geometry" />
        </mxCell>
        <mxCell id="HqEoBKaH_x2RzY1JDvCR-14" value="" style="edgeStyle=orthogonalEdgeStyle;rounded=0;orthogonalLoop=1;jettySize=auto;html=1;" parent="1" source="HqEoBKaH_x2RzY1JDvCR-7" target="HqEoBKaH_x2RzY1JDvCR-8" edge="1">
          <mxGeometry relative="1" as="geometry" />
        </mxCell>
        <mxCell id="HqEoBKaH_x2RzY1JDvCR-7" value="有无问题" style="rhombus;whiteSpace=wrap;html=1;" parent="1" vertex="1">
          <mxGeometry x="185" y="665" width="60" height="50" as="geometry" />
        </mxCell>
        <mxCell id="HqEoBKaH_x2RzY1JDvCR-21" value="" style="edgeStyle=orthogonalEdgeStyle;rounded=0;orthogonalLoop=1;jettySize=auto;html=1;entryX=0;entryY=0.5;entryDx=0;entryDy=0;" parent="1" source="HqEoBKaH_x2RzY1JDvCR-8" target="U-x_nso1w-7MmtHxoD05-76" edge="1">
          <mxGeometry relative="1" as="geometry">
            <Array as="points">
              <mxPoint x="290" y="765" />
              <mxPoint x="290" y="725" />
            </Array>
          </mxGeometry>
        </mxCell>
        <mxCell id="HqEoBKaH_x2RzY1JDvCR-8" value="提交审批" style="rounded=1;whiteSpace=wrap;html=1;" parent="1" vertex="1">
          <mxGeometry x="175" y="750" width="80" height="30" as="geometry" />
        </mxCell>
        <mxCell id="HqEoBKaH_x2RzY1JDvCR-10" value="有" style="text;html=1;align=center;verticalAlign=middle;resizable=0;points=[];autosize=1;strokeColor=none;" parent="1" vertex="1">
          <mxGeometry x="155" y="670" width="30" height="20" as="geometry" />
        </mxCell>
        <mxCell id="HqEoBKaH_x2RzY1JDvCR-15" value="无" style="text;html=1;align=center;verticalAlign=middle;resizable=0;points=[];autosize=1;strokeColor=none;" parent="1" vertex="1">
          <mxGeometry x="215" y="720" width="30" height="20" as="geometry" />
        </mxCell>
        <mxCell id="HqEoBKaH_x2RzY1JDvCR-16" value="" style="endArrow=classic;html=1;exitX=0.5;exitY=1;exitDx=0;exitDy=0;entryX=0.5;entryY=0;entryDx=0;entryDy=0;" parent="1" source="HqEoBKaH_x2RzY1JDvCR-6" target="HqEoBKaH_x2RzY1JDvCR-7" edge="1">
          <mxGeometry width="50" height="50" relative="1" as="geometry">
            <mxPoint x="300" y="690" as="sourcePoint" />
            <mxPoint x="350" y="640" as="targetPoint" />
          </mxGeometry>
        </mxCell>
        <mxCell id="U-x_nso1w-7MmtHxoD05-87" value="通过" style="text;html=1;align=center;verticalAlign=middle;resizable=0;points=[];autosize=1;strokeColor=none;" parent="1" vertex="1">
          <mxGeometry x="382.5" y="700" width="40" height="20" as="geometry" />
        </mxCell>
        <mxCell id="HqEoBKaH_x2RzY1JDvCR-24" value="重新提交" style="rounded=1;whiteSpace=wrap;html=1;" parent="1" vertex="1">
          <mxGeometry x="65.75" y="806" width="72.5" height="30" as="geometry" />
        </mxCell>
        <mxCell id="HqEoBKaH_x2RzY1JDvCR-30" value="" style="endArrow=classic;html=1;exitX=0.5;exitY=1;exitDx=0;exitDy=0;entryX=0.5;entryY=0;entryDx=0;entryDy=0;" parent="1" source="U-x_nso1w-7MmtHxoD05-88" target="U-x_nso1w-7MmtHxoD05-90" edge="1">
          <mxGeometry width="50" height="50" relative="1" as="geometry">
            <mxPoint x="300" y="840" as="sourcePoint" />
            <mxPoint x="350" y="790" as="targetPoint" />
          </mxGeometry>
        </mxCell>
        <mxCell id="HqEoBKaH_x2RzY1JDvCR-35" value="" style="endArrow=none;dashed=1;html=1;" parent="1" edge="1">
          <mxGeometry width="50" height="50" relative="1" as="geometry">
            <mxPoint x="160" y="960" as="sourcePoint" />
            <mxPoint x="160" y="400" as="targetPoint" />
          </mxGeometry>
        </mxCell>
        <mxCell id="HqEoBKaH_x2RzY1JDvCR-36" value="" style="endArrow=none;dashed=1;html=1;" parent="1" edge="1">
          <mxGeometry width="50" height="50" relative="1" as="geometry">
            <mxPoint x="278" y="958" as="sourcePoint" />
            <mxPoint x="278" y="398" as="targetPoint" />
          </mxGeometry>
        </mxCell>
        <mxCell id="HqEoBKaH_x2RzY1JDvCR-37" value="" style="endArrow=none;dashed=1;html=1;" parent="1" edge="1">
          <mxGeometry width="50" height="50" relative="1" as="geometry">
            <mxPoint x="398" y="962" as="sourcePoint" />
            <mxPoint x="398" y="402" as="targetPoint" />
          </mxGeometry>
        </mxCell>
        <mxCell id="HqEoBKaH_x2RzY1JDvCR-38" value="" style="endArrow=none;dashed=1;html=1;" parent="1" edge="1">
          <mxGeometry width="50" height="50" relative="1" as="geometry">
            <mxPoint x="543" y="962" as="sourcePoint" />
            <mxPoint x="543" y="402" as="targetPoint" />
          </mxGeometry>
        </mxCell>
        <mxCell id="jdWf3Xg9EVknnD4Y-a3p-1" value="开发部门领导" style="rounded=1;whiteSpace=wrap;html=1;" vertex="1" parent="1">
          <mxGeometry x="570" y="550" width="80" height="40" as="geometry" />
        </mxCell>
        <mxCell id="jdWf3Xg9EVknnD4Y-a3p-2" value="质保部门领导" style="rounded=1;whiteSpace=wrap;html=1;" vertex="1" parent="1">
          <mxGeometry x="570" y="625" width="80" height="40" as="geometry" />
        </mxCell>
        <mxCell id="jdWf3Xg9EVknnD4Y-a3p-3" value="运营部门领导" style="rounded=1;whiteSpace=wrap;html=1;" vertex="1" parent="1">
          <mxGeometry x="570" y="705" width="80" height="40" as="geometry" />
        </mxCell>
        <mxCell id="jdWf3Xg9EVknnD4Y-a3p-5" value="" style="edgeStyle=elbowEdgeStyle;elbow=horizontal;endArrow=classic;html=1;exitX=1;exitY=0.5;exitDx=0;exitDy=0;entryX=0;entryY=0.5;entryDx=0;entryDy=0;" edge="1" parent="1" source="U-x_nso1w-7MmtHxoD05-90" target="jdWf3Xg9EVknnD4Y-a3p-1">
          <mxGeometry width="50" height="50" relative="1" as="geometry">
            <mxPoint x="380" y="630" as="sourcePoint" />
            <mxPoint x="430" y="580" as="targetPoint" />
            <Array as="points">
              <mxPoint x="530" y="680" />
            </Array>
          </mxGeometry>
        </mxCell>
        <mxCell id="jdWf3Xg9EVknnD4Y-a3p-7" value="" style="endArrow=classic;html=1;entryX=0;entryY=0.5;entryDx=0;entryDy=0;" edge="1" parent="1" target="jdWf3Xg9EVknnD4Y-a3p-2">
          <mxGeometry width="50" height="50" relative="1" as="geometry">
            <mxPoint x="530" y="645" as="sourcePoint" />
            <mxPoint x="430" y="580" as="targetPoint" />
          </mxGeometry>
        </mxCell>
        <mxCell id="jdWf3Xg9EVknnD4Y-a3p-8" value="" style="endArrow=classic;html=1;entryX=0;entryY=0.5;entryDx=0;entryDy=0;" edge="1" parent="1" target="jdWf3Xg9EVknnD4Y-a3p-3">
          <mxGeometry width="50" height="50" relative="1" as="geometry">
            <mxPoint x="530" y="725" as="sourcePoint" />
            <mxPoint x="580" y="655" as="targetPoint" />
          </mxGeometry>
        </mxCell>
        <mxCell id="jdWf3Xg9EVknnD4Y-a3p-9" value="" style="edgeStyle=elbowEdgeStyle;elbow=horizontal;endArrow=classic;html=1;exitX=1;exitY=0.5;exitDx=0;exitDy=0;entryX=1;entryY=0.5;entryDx=0;entryDy=0;" edge="1" parent="1" source="jdWf3Xg9EVknnD4Y-a3p-1" target="U-x_nso1w-7MmtHxoD05-105">
          <mxGeometry width="50" height="50" relative="1" as="geometry">
            <mxPoint x="380" y="710" as="sourcePoint" />
            <mxPoint x="430" y="660" as="targetPoint" />
            <Array as="points">
              <mxPoint x="670" y="730" />
            </Array>
          </mxGeometry>
        </mxCell>
        <mxCell id="jdWf3Xg9EVknnD4Y-a3p-11" value="" style="endArrow=none;html=1;exitX=1;exitY=0.5;exitDx=0;exitDy=0;" edge="1" parent="1" source="jdWf3Xg9EVknnD4Y-a3p-2">
          <mxGeometry width="50" height="50" relative="1" as="geometry">
            <mxPoint x="380" y="710" as="sourcePoint" />
            <mxPoint x="670" y="645" as="targetPoint" />
          </mxGeometry>
        </mxCell>
        <mxCell id="jdWf3Xg9EVknnD4Y-a3p-12" value="" style="endArrow=none;html=1;exitX=1;exitY=0.5;exitDx=0;exitDy=0;" edge="1" parent="1" source="jdWf3Xg9EVknnD4Y-a3p-3">
          <mxGeometry width="50" height="50" relative="1" as="geometry">
            <mxPoint x="660" y="655" as="sourcePoint" />
            <mxPoint x="670" y="725" as="targetPoint" />
          </mxGeometry>
        </mxCell>
        <mxCell id="jdWf3Xg9EVknnD4Y-a3p-13" value="" style="edgeStyle=segmentEdgeStyle;endArrow=classic;html=1;exitX=0.5;exitY=1;exitDx=0;exitDy=0;entryX=1;entryY=0.5;entryDx=0;entryDy=0;" edge="1" parent="1" source="U-x_nso1w-7MmtHxoD05-105" target="U-x_nso1w-7MmtHxoD05-108">
          <mxGeometry width="50" height="50" relative="1" as="geometry">
            <mxPoint x="380" y="780" as="sourcePoint" />
            <mxPoint x="430" y="730" as="targetPoint" />
            <Array as="points">
              <mxPoint x="610" y="885" />
            </Array>
          </mxGeometry>
        </mxCell>
      </root>
    </mxGraphModel>
  </diagram>
</mxfile>
